<?xml version="1.0" encoding="utf-8"?>
<!-- Generator: Adobe Illustrator 23.0.3, SVG Export Plug-In . SVG Version: 6.00 Build 0)  -->
<svg version="1.1" id="图层_1" xmlns="http://www.w3.org/2000/svg" xmlns:xlink="http://www.w3.org/1999/xlink" x="0px" y="0px"
	 viewBox="0 0 200 200" style="enable-background:new 0 0 200 200;" xml:space="preserve">
<style type="text/css">
	.st0{fill:#34495E;}
</style>
<g>
	<path class="st0" d="M41,100c0,6.5,5.3,11.8,11.8,11.8s11.8-5.3,11.8-11.8c0-6.5-5.3-11.8-11.8-11.8S41,93.5,41,100z"/>
	<path class="st0" d="M88.2,100c0,6.5,5.3,11.8,11.8,11.8c6.5,0,11.8-5.3,11.8-11.8c0-6.5-5.3-11.8-11.8-11.8
		C93.5,88.2,88.2,93.5,88.2,100z"/>
	<path class="st0" d="M135.4,100c0,6.5,5.3,11.8,11.8,11.8S159,106.5,159,100c0-6.5-5.3-11.8-11.8-11.8S135.4,93.5,135.4,100z"/>
</g>
</svg>
